<svg xmlns="http://www.w3.org/2000/svg" version="1.1" xmlns:xlink="http://www.w3.org/1999/xlink" xmlns:svgjs="http://svgjs.dev/svgjs" viewBox="0 0 800 800"><circle r="8.5" cx="141" cy="725" fill="hsl(163, 56%, 35%)" opacity="0.13"></circle><circle r="9" cx="761" cy="749" fill="hsl(164, 56%, 35%)" opacity="0.73"></circle><circle r="7" cx="10" cy="439" fill="hsl(172, 56%, 35%)" opacity="0.36"></circle><circle r="5" cx="505" cy="170" fill="hsl(155, 56%, 35%)" opacity="0.86"></circle><circle r="8" cx="627" cy="393" fill="hsl(146, 56%, 35%)" opacity="0.89"></circle><circle r="7" cx="223" cy="137" fill="hsl(157, 56%, 35%)" opacity="0.55"></circle><circle r="4.5" cx="307" cy="144" fill="hsl(148, 56%, 35%)" opacity="0.29"></circle><circle r="6.5" cx="624" cy="229" fill="hsl(146, 56%, 35%)" opacity="0.21"></circle><circle r="7" cx="374" cy="422" fill="hsl(145, 56%, 35%)" opacity="0.33"></circle><circle r="4.5" cx="288" cy="402" fill="hsl(144, 56%, 35%)" opacity="0.90"></circle><circle r="7.5" cx="148" cy="618" fill="hsl(163, 56%, 35%)" opacity="0.99"></circle><circle r="6" cx="505" cy="785" fill="hsl(152, 56%, 35%)" opacity="0.13"></circle><circle r="12.5" cx="779" cy="171" fill="hsl(174, 56%, 35%)" opacity="0.96"></circle><circle r="7.5" cx="330" cy="119" fill="hsl(152, 56%, 35%)" opacity="0.90"></circle><circle r="5.5" cx="433" cy="220" fill="hsl(150, 56%, 35%)" opacity="0.88"></circle><circle r="11.5" cx="715" cy="47" fill="hsl(175, 56%, 35%)" opacity="0.43"></circle><circle r="8" cx="61" cy="662" fill="hsl(172, 56%, 35%)" opacity="0.63"></circle><circle r="10" cx="102" cy="474" fill="hsl(169, 56%, 35%)" opacity="0.94"></circle><circle r="5.5" cx="250" cy="766" fill="hsl(147, 56%, 35%)" opacity="0.43"></circle><circle r="9" cx="728" cy="15" fill="hsl(174, 56%, 35%)" opacity="0.38"></circle><circle r="8" cx="200" cy="185" fill="hsl(156, 56%, 35%)" opacity="0.23"></circle><circle r="5.5" cx="426" cy="343" fill="hsl(150, 56%, 35%)" opacity="0.31"></circle><circle r="7" cx="349" cy="187" fill="hsl(145, 56%, 35%)" opacity="0.35"></circle><circle r="6" cx="619" cy="676" fill="hsl(146, 56%, 35%)" opacity="0.93"></circle><circle r="6.5" cx="314" cy="763" fill="hsl(144, 56%, 35%)" opacity="0.86"></circle><circle r="8" cx="162" cy="469" fill="hsl(161, 56%, 35%)" opacity="0.59"></circle><circle r="8.5" cx="515" cy="690" fill="hsl(151, 56%, 35%)" opacity="0.69"></circle><circle r="4.5" cx="610" cy="362" fill="hsl(146, 56%, 35%)" opacity="0.61"></circle><circle r="4" cx="534" cy="462" fill="hsl(150, 56%, 35%)" opacity="0.31"></circle><circle r="6" cx="662" cy="214" fill="hsl(147, 56%, 35%)" opacity="0.50"></circle><circle r="7.5" cx="59" cy="689" fill="hsl(172, 56%, 35%)" opacity="0.76"></circle><circle r="4.5" cx="419" cy="507" fill="hsl(149, 56%, 35%)" opacity="0.70"></circle><circle r="5.5" cx="465" cy="415" fill="hsl(152, 56%, 35%)" opacity="0.91"></circle><circle r="5" cx="468" cy="388" fill="hsl(152, 56%, 35%)" opacity="0.38"></circle><circle r="7" cx="271" cy="647" fill="hsl(146, 56%, 35%)" opacity="0.74"></circle><circle r="11" cx="781" cy="648" fill="hsl(169, 56%, 35%)" opacity="0.39"></circle><circle r="9.5" cx="57" cy="54" fill="hsl(172, 56%, 35%)" opacity="0.26"></circle><circle r="3" cx="329" cy="386" fill="hsl(144, 56%, 35%)" opacity="0.89"></circle><circle r="4" cx="447" cy="572" fill="hsl(151, 56%, 35%)" opacity="0.67"></circle><circle r="7.5" cx="632" cy="449" fill="hsl(146, 56%, 35%)" opacity="0.99"></circle><circle r="8.5" cx="627" cy="57" fill="hsl(173, 56%, 35%)" opacity="0.44"></circle><circle r="6.5" cx="342" cy="660" fill="hsl(144, 56%, 35%)" opacity="0.23"></circle><circle r="11.5" cx="127" cy="507" fill="hsl(165, 56%, 35%)" opacity="0.63"></circle><circle r="6.5" cx="740" cy="150" fill="hsl(171, 56%, 35%)" opacity="0.72"></circle><circle r="13.5" cx="774" cy="474" fill="hsl(166, 56%, 35%)" opacity="0.63"></circle><circle r="11" cx="376" cy="107" fill="hsl(159, 56%, 35%)" opacity="0.94"></circle><circle r="8.5" cx="124" cy="153" fill="hsl(171, 56%, 35%)" opacity="0.42"></circle><circle r="7.5" cx="47" cy="710" fill="hsl(173, 56%, 35%)" opacity="0.77"></circle><circle r="11.5" cx="419" cy="126" fill="hsl(158, 56%, 35%)" opacity="0.19"></circle><circle r="6.5" cx="526" cy="214" fill="hsl(150, 56%, 35%)" opacity="0.18"></circle><circle r="7" cx="717" cy="678" fill="hsl(155, 56%, 35%)" opacity="0.34"></circle><circle r="5.5" cx="365" cy="484" fill="hsl(145, 56%, 35%)" opacity="0.95"></circle><circle r="8.5" cx="153" cy="137" fill="hsl(167, 56%, 35%)" opacity="0.52"></circle><circle r="10.5" cx="20" cy="330" fill="hsl(172, 56%, 35%)" opacity="0.27"></circle><circle r="10" cx="704" cy="87" fill="hsl(172, 56%, 35%)" opacity="0.75"></circle><circle r="5" cx="238" cy="499" fill="hsl(148, 56%, 35%)" opacity="0.59"></circle><circle r="11.5" cx="98" cy="171" fill="hsl(173, 56%, 35%)" opacity="0.59"></circle><circle r="5" cx="450" cy="460" fill="hsl(151, 56%, 35%)" opacity="0.48"></circle><circle r="4" cx="468" cy="185" fill="hsl(153, 56%, 35%)" opacity="0.67"></circle><circle r="5" cx="264" cy="285" fill="hsl(146, 56%, 35%)" opacity="0.51"></circle><circle r="3.5" cx="237" cy="556" fill="hsl(150, 56%, 35%)" opacity="0.77"></circle><circle r="6.5" cx="662" cy="617" fill="hsl(147, 56%, 35%)" opacity="0.32"></circle><circle r="7" cx="188" cy="111" fill="hsl(162, 56%, 35%)" opacity="0.56"></circle><circle r="7" cx="17" cy="13" fill="hsl(165, 56%, 35%)" opacity="0.89"></circle><circle r="6" cx="267" cy="420" fill="hsl(146, 56%, 35%)" opacity="0.92"></circle><circle r="9.5" cx="194" cy="779" fill="hsl(155, 56%, 35%)" opacity="0.52"></circle><circle r="9.5" cx="693" cy="125" fill="hsl(166, 56%, 35%)" opacity="0.63"></circle><circle r="7" cx="375" cy="593" fill="hsl(146, 56%, 35%)" opacity="0.51"></circle><circle r="6" cx="364" cy="558" fill="hsl(145, 56%, 35%)" opacity="0.79"></circle><circle r="7" cx="504" cy="474" fill="hsl(152, 56%, 35%)" opacity="0.53"></circle><circle r="8.5" cx="170" cy="171" fill="hsl(161, 56%, 35%)" opacity="0.61"></circle><circle r="9.5" cx="721" cy="320" fill="hsl(155, 56%, 35%)" opacity="0.51"></circle><circle r="9" cx="402" cy="180" fill="hsl(149, 56%, 35%)" opacity="0.14"></circle><circle r="7" cx="672" cy="772" fill="hsl(148, 56%, 35%)" opacity="0.23"></circle><circle r="8.5" cx="37" cy="459" fill="hsl(173, 56%, 35%)" opacity="0.91"></circle><circle r="5.5" cx="272" cy="513" fill="hsl(146, 56%, 35%)" opacity="0.59"></circle><circle r="7.5" cx="727" cy="266" fill="hsl(158, 56%, 35%)" opacity="0.46"></circle><circle r="12" cx="727" cy="446" fill="hsl(158, 56%, 35%)" opacity="0.71"></circle><circle r="12.5" cx="677" cy="20" fill="hsl(174, 56%, 35%)" opacity="0.27"></circle><circle r="12.5" cx="623" cy="19" fill="hsl(180, 56%, 35%)" opacity="0.88"></circle><circle r="10" cx="650" cy="112" fill="hsl(164, 56%, 35%)" opacity="0.46"></circle><circle r="6.5" cx="569" cy="756" fill="hsl(148, 56%, 35%)" opacity="0.35"></circle><circle r="8" cx="36" cy="355" fill="hsl(173, 56%, 35%)" opacity="0.83"></circle><circle r="8" cx="582" cy="256" fill="hsl(147, 56%, 35%)" opacity="0.20"></circle><circle r="5" cx="419" cy="260" fill="hsl(149, 56%, 35%)" opacity="0.95"></circle><circle r="7.5" cx="272" cy="724" fill="hsl(146, 56%, 35%)" opacity="0.31"></circle><circle r="4.5" cx="651" cy="349" fill="hsl(147, 56%, 35%)" opacity="0.72"></circle><circle r="4.5" cx="317" cy="169" fill="hsl(145, 56%, 35%)" opacity="0.62"></circle><circle r="13.5" cx="49" cy="90" fill="hsl(178, 56%, 35%)" opacity="0.43"></circle><circle r="5.5" cx="396" cy="544" fill="hsl(147, 56%, 35%)" opacity="0.80"></circle><circle r="8" cx="608" cy="148" fill="hsl(155, 56%, 35%)" opacity="0.89"></circle><circle r="5" cx="457" cy="208" fill="hsl(151, 56%, 35%)" opacity="0.93"></circle><circle r="8.5" cx="189" cy="253" fill="hsl(155, 56%, 35%)" opacity="0.27"></circle><circle r="6" cx="206" cy="223" fill="hsl(153, 56%, 35%)" opacity="0.73"></circle><circle r="4" cx="481" cy="204" fill="hsl(152, 56%, 35%)" opacity="0.73"></circle><circle r="5.5" cx="563" cy="377" fill="hsl(148, 56%, 35%)" opacity="0.73"></circle><circle r="6" cx="504" cy="753" fill="hsl(152, 56%, 35%)" opacity="0.21"></circle><circle r="12.5" cx="551" cy="68" fill="hsl(177, 56%, 35%)" opacity="0.45"></circle><circle r="7" cx="273" cy="15" fill="hsl(159, 56%, 35%)" opacity="0.39"></circle><circle r="8" cx="189" cy="487" fill="hsl(155, 56%, 35%)" opacity="0.94"></circle><circle r="7" cx="503" cy="423" fill="hsl(152, 56%, 35%)" opacity="0.87"></circle><circle r="5" cx="393" cy="501" fill="hsl(147, 56%, 35%)" opacity="0.76"></circle><circle r="10.5" cx="15" cy="490" fill="hsl(172, 56%, 35%)" opacity="0.28"></circle><circle r="5" cx="551" cy="480" fill="hsl(149, 56%, 35%)" opacity="0.83"></circle><circle r="6" cx="101" cy="34" fill="hsl(166, 56%, 35%)" opacity="0.19"></circle><circle r="7.5" cx="300" cy="99" fill="hsl(155, 56%, 35%)" opacity="0.45"></circle><circle r="4.5" cx="557" cy="530" fill="hsl(149, 56%, 35%)" opacity="0.35"></circle><circle r="9.5" cx="124" cy="279" fill="hsl(167, 56%, 35%)" opacity="0.49"></circle><circle r="6" cx="336" cy="313" fill="hsl(144, 56%, 35%)" opacity="0.81"></circle><circle r="7" cx="625" cy="538" fill="hsl(146, 56%, 35%)" opacity="0.86"></circle><circle r="5" cx="320" cy="257" fill="hsl(144, 56%, 35%)" opacity="0.42"></circle><circle r="8.5" cx="315" cy="714" fill="hsl(144, 56%, 35%)" opacity="0.78"></circle><circle r="8.5" cx="472" cy="683" fill="hsl(152, 56%, 35%)" opacity="0.55"></circle><circle r="8" cx="531" cy="167" fill="hsl(154, 56%, 35%)" opacity="0.50"></circle><circle r="6" cx="224" cy="42" fill="hsl(161, 56%, 35%)" opacity="0.24"></circle><circle r="6.5" cx="386" cy="458" fill="hsl(146, 56%, 35%)" opacity="0.67"></circle><circle r="6" cx="480" cy="233" fill="hsl(152, 56%, 35%)" opacity="0.17"></circle><circle r="7" cx="703" cy="199" fill="hsl(153, 56%, 35%)" opacity="0.11"></circle><circle r="7" cx="119" cy="388" fill="hsl(167, 56%, 35%)" opacity="0.52"></circle><circle r="5.5" cx="432" cy="775" fill="hsl(150, 56%, 35%)" opacity="0.71"></circle><circle r="5.5" cx="549" cy="425" fill="hsl(150, 56%, 35%)" opacity="0.48"></circle><circle r="8.5" cx="495" cy="337" fill="hsl(152, 56%, 35%)" opacity="0.75"></circle><circle r="8.5" cx="163" cy="754" fill="hsl(159, 56%, 35%)" opacity="0.13"></circle><circle r="7.5" cx="236" cy="190" fill="hsl(150, 56%, 35%)" opacity="0.17"></circle><circle r="9.5" cx="193" cy="80" fill="hsl(163, 56%, 35%)" opacity="0.89"></circle><circle r="7.5" cx="707" cy="154" fill="hsl(161, 56%, 35%)" opacity="0.55"></circle><circle r="10.5" cx="157" cy="654" fill="hsl(161, 56%, 35%)" opacity="0.28"></circle><circle r="6" cx="329" cy="417" fill="hsl(144, 56%, 35%)" opacity="0.16"></circle><circle r="15.5" cx="475" cy="50" fill="hsl(180, 56%, 35%)" opacity="0.76"></circle><circle r="7" cx="587" cy="648" fill="hsl(147, 56%, 35%)" opacity="0.51"></circle><circle r="10.5" cx="103" cy="771" fill="hsl(169, 56%, 35%)" opacity="0.11"></circle><circle r="8" cx="781" cy="561" fill="hsl(169, 56%, 35%)" opacity="0.74"></circle><circle r="4" cx="417" cy="682" fill="hsl(149, 56%, 35%)" opacity="0.69"></circle><circle r="9.5" cx="479" cy="139" fill="hsl(160, 56%, 35%)" opacity="0.81"></circle><circle r="6.5" cx="691" cy="510" fill="hsl(151, 56%, 35%)" opacity="0.63"></circle><circle r="6.5" cx="723" cy="595" fill="hsl(155, 56%, 35%)" opacity="0.42"></circle><circle r="9" cx="71" cy="18" fill="hsl(165, 56%, 35%)" opacity="0.98"></circle><circle r="8.5" cx="129" cy="415" fill="hsl(165, 56%, 35%)" opacity="0.72"></circle><circle r="8" cx="155" cy="586" fill="hsl(161, 56%, 35%)" opacity="0.77"></circle><circle r="7.5" cx="398" cy="224" fill="hsl(147, 56%, 35%)" opacity="0.17"></circle><circle r="5" cx="128" cy="596" fill="hsl(165, 56%, 35%)" opacity="0.20"></circle><circle r="13.5" cx="24" cy="188" fill="hsl(172, 56%, 35%)" opacity="0.20"></circle><circle r="8.5" cx="748" cy="669" fill="hsl(161, 56%, 35%)" opacity="0.33"></circle><circle r="8" cx="351" cy="230" fill="hsl(145, 56%, 35%)" opacity="0.95"></circle><circle r="10" cx="762" cy="26" fill="hsl(176, 56%, 35%)" opacity="0.11"></circle><circle r="10" cx="184" cy="410" fill="hsl(157, 56%, 35%)" opacity="0.52"></circle><circle r="3.5" cx="544" cy="712" fill="hsl(150, 56%, 35%)" opacity="0.34"></circle><circle r="8" cx="677" cy="371" fill="hsl(149, 56%, 35%)" opacity="0.80"></circle><circle r="7" cx="512" cy="646" fill="hsl(152, 56%, 35%)" opacity="0.31"></circle><circle r="8" cx="480" cy="731" fill="hsl(152, 56%, 35%)" opacity="0.44"></circle><circle r="8" cx="50" cy="377" fill="hsl(172, 56%, 35%)" opacity="0.78"></circle><circle r="10" cx="184" cy="38" fill="hsl(164, 56%, 35%)" opacity="0.28"></circle><circle r="8.5" cx="77" cy="599" fill="hsl(171, 56%, 35%)" opacity="0.52"></circle><circle r="7" cx="685" cy="649" fill="hsl(149, 56%, 35%)" opacity="0.32"></circle><circle r="7" cx="767" cy="528" fill="hsl(166, 56%, 35%)" opacity="0.77"></circle><circle r="8.5" cx="457" cy="315" fill="hsl(151, 56%, 35%)" opacity="0.17"></circle><circle r="6.5" cx="503" cy="508" fill="hsl(152, 56%, 35%)" opacity="0.93"></circle><circle r="8.5" cx="199" cy="725" fill="hsl(155, 56%, 35%)" opacity="0.56"></circle><circle r="9.5" cx="107" cy="731" fill="hsl(169, 56%, 35%)" opacity="0.22"></circle><circle r="9" cx="727" cy="781" fill="hsl(158, 56%, 35%)" opacity="0.51"></circle><circle r="4.5" cx="322" cy="284" fill="hsl(144, 56%, 35%)" opacity="0.27"></circle><circle r="7.5" cx="393" cy="742" fill="hsl(147, 56%, 35%)" opacity="0.25"></circle><circle r="6.5" cx="367" cy="382" fill="hsl(145, 56%, 35%)" opacity="0.11"></circle><circle r="7" cx="547" cy="326" fill="hsl(150, 56%, 35%)" opacity="0.17"></circle><circle r="6.5" cx="356" cy="733" fill="hsl(145, 56%, 35%)" opacity="0.78"></circle><circle r="11.5" cx="53" cy="621" fill="hsl(172, 56%, 35%)" opacity="0.89"></circle><circle r="9" cx="784" cy="233" fill="hsl(169, 56%, 35%)" opacity="0.74"></circle><circle r="4.5" cx="286" cy="774" fill="hsl(145, 56%, 35%)" opacity="0.53"></circle><circle r="14.5" cx="512" cy="93" fill="hsl(173, 56%, 35%)" opacity="0.97"></circle><circle r="15.5" cx="77" cy="127" fill="hsl(177, 56%, 35%)" opacity="0.66"></circle><circle r="5.5" cx="607" cy="297" fill="hsl(146, 56%, 35%)" opacity="0.76"></circle><circle r="6" cx="81" cy="393" fill="hsl(171, 56%, 35%)" opacity="0.25"></circle><circle r="4.5" cx="502" cy="213" fill="hsl(152, 56%, 35%)" opacity="0.63"></circle><circle r="9" cx="154" cy="258" fill="hsl(161, 56%, 35%)" opacity="0.80"></circle><circle r="7" cx="309" cy="520" fill="hsl(144, 56%, 35%)" opacity="0.81"></circle><circle r="7" cx="526" cy="542" fill="hsl(150, 56%, 35%)" opacity="0.79"></circle><circle r="14" cx="148" cy="82" fill="hsl(169, 56%, 35%)" opacity="0.96"></circle><circle r="9" cx="75" cy="730" fill="hsl(171, 56%, 35%)" opacity="0.22"></circle><circle r="8.5" cx="81" cy="499" fill="hsl(171, 56%, 35%)" opacity="0.64"></circle><circle r="4.5" cx="416" cy="642" fill="hsl(149, 56%, 35%)" opacity="0.87"></circle><circle r="11.5" cx="779" cy="710" fill="hsl(169, 56%, 35%)" opacity="0.93"></circle><circle r="14" cx="577" cy="28" fill="hsl(182, 56%, 35%)" opacity="0.63"></circle><circle r="7" cx="381" cy="634" fill="hsl(146, 56%, 35%)" opacity="0.45"></circle><circle r="9" cx="733" cy="721" fill="hsl(158, 56%, 35%)" opacity="0.80"></circle><circle r="4.5" cx="443" cy="389" fill="hsl(151, 56%, 35%)" opacity="0.33"></circle><circle r="10" cx="604" cy="111" fill="hsl(164, 56%, 35%)" opacity="0.65"></circle><circle r="10" cx="233" cy="381" fill="hsl(150, 56%, 35%)" opacity="0.80"></circle><circle r="4.5" cx="234" cy="474" fill="hsl(150, 56%, 35%)" opacity="0.79"></circle><circle r="11" cx="121" cy="219" fill="hsl(167, 56%, 35%)" opacity="0.61"></circle><circle r="6.5" cx="267" cy="337" fill="hsl(146, 56%, 35%)" opacity="0.20"></circle><circle r="9.5" cx="202" cy="667" fill="hsl(153, 56%, 35%)" opacity="0.73"></circle><circle r="9.5" cx="228" cy="611" fill="hsl(150, 56%, 35%)" opacity="0.23"></circle><circle r="5" cx="7" cy="657" fill="hsl(172, 56%, 35%)" opacity="0.97"></circle><circle r="6" cx="550" cy="576" fill="hsl(149, 56%, 35%)" opacity="0.69"></circle><circle r="8" cx="102" cy="438" fill="hsl(169, 56%, 35%)" opacity="0.85"></circle><circle r="6" cx="461" cy="612" fill="hsl(151, 56%, 35%)" opacity="0.11"></circle><circle r="8.5" cx="94" cy="688" fill="hsl(170, 56%, 35%)" opacity="0.25"></circle><circle r="10.5" cx="101" cy="308" fill="hsl(169, 56%, 35%)" opacity="0.47"></circle><circle r="11" cx="589" cy="76" fill="hsl(171, 56%, 35%)" opacity="0.25"></circle><circle r="10.5" cx="737" cy="548" fill="hsl(158, 56%, 35%)" opacity="0.19"></circle><circle r="10.5" cx="781" cy="593" fill="hsl(169, 56%, 35%)" opacity="0.82"></circle><circle r="9.5" cx="294" cy="53" fill="hsl(159, 56%, 35%)" opacity="0.44"></circle><circle r="5" cx="283" cy="165" fill="hsl(146, 56%, 35%)" opacity="0.63"></circle><circle r="12.5" cx="19" cy="592" fill="hsl(172, 56%, 35%)" opacity="0.90"></circle><circle r="7.5" cx="630" cy="639" fill="hsl(146, 56%, 35%)" opacity="0.89"></circle><circle r="9.5" cx="757" cy="385" fill="hsl(164, 56%, 35%)" opacity="0.98"></circle><circle r="5.5" cx="208" cy="541" fill="hsl(153, 56%, 35%)" opacity="0.96"></circle><circle r="7" cx="512" cy="581" fill="hsl(152, 56%, 35%)" opacity="0.33"></circle><circle r="4" cx="324" cy="363" fill="hsl(144, 56%, 35%)" opacity="0.90"></circle><circle r="6" cx="558" cy="231" fill="hsl(149, 56%, 35%)" opacity="0.51"></circle><circle r="7" cx="789" cy="25" fill="hsl(179, 56%, 35%)" opacity="0.54"></circle><circle r="13.5" cx="460" cy="99" fill="hsl(171, 56%, 35%)" opacity="0.80"></circle><circle r="6.5" cx="301" cy="465" fill="hsl(144, 56%, 35%)" opacity="0.36"></circle><circle r="8.5" cx="13" cy="53" fill="hsl(173, 56%, 35%)" opacity="0.23"></circle><circle r="6" cx="258" cy="454" fill="hsl(147, 56%, 35%)" opacity="0.66"></circle><circle r="9" cx="675" cy="689" fill="hsl(149, 56%, 35%)" opacity="0.89"></circle><circle r="4" cx="261" cy="242" fill="hsl(147, 56%, 35%)" opacity="0.93"></circle><circle r="7" cx="441" cy="175" fill="hsl(152, 56%, 35%)" opacity="0.80"></circle><circle r="7" cx="566" cy="139" fill="hsl(157, 56%, 35%)" opacity="0.34"></circle><circle r="5.5" cx="518" cy="375" fill="hsl(151, 56%, 35%)" opacity="0.84"></circle><circle r="7.5" cx="414" cy="415" fill="hsl(149, 56%, 35%)" opacity="0.58"></circle><circle r="11" cx="726" cy="496" fill="hsl(158, 56%, 35%)" opacity="0.55"></circle><circle r="5.5" cx="333" cy="479" fill="hsl(144, 56%, 35%)" opacity="0.23"></circle><circle r="5" cx="478" cy="170" fill="hsl(155, 56%, 35%)" opacity="0.48"></circle><circle r="6.5" cx="87" cy="417" fill="hsl(171, 56%, 35%)" opacity="0.30"></circle><circle r="6" cx="235" cy="227" fill="hsl(150, 56%, 35%)" opacity="0.88"></circle><circle r="6" cx="265" cy="81" fill="hsl(157, 56%, 35%)" opacity="0.33"></circle><circle r="7.5" cx="233" cy="711" fill="hsl(150, 56%, 35%)" opacity="0.13"></circle><circle r="11" cx="76" cy="335" fill="hsl(171, 56%, 35%)" opacity="0.11"></circle><circle r="8" cx="136" cy="449" fill="hsl(165, 56%, 35%)" opacity="0.79"></circle><circle r="7.5" cx="196" cy="566" fill="hsl(155, 56%, 35%)" opacity="0.47"></circle><circle r="5" cx="233" cy="64" fill="hsl(160, 56%, 35%)" opacity="0.11"></circle><circle r="7" cx="20" cy="680" fill="hsl(172, 56%, 35%)" opacity="0.60"></circle><circle r="6.5" cx="212" cy="13" fill="hsl(161, 56%, 35%)" opacity="0.43"></circle><circle r="3.5" cx="560" cy="724" fill="hsl(149, 56%, 35%)" opacity="0.70"></circle><circle r="14" cx="27" cy="142" fill="hsl(180, 56%, 35%)" opacity="0.46"></circle><circle r="7.5" cx="736" cy="125" fill="hsl(170, 56%, 35%)" opacity="0.39"></circle><circle r="6.5" cx="571" cy="170" fill="hsl(152, 56%, 35%)" opacity="0.77"></circle><circle r="5" cx="521" cy="444" fill="hsl(151, 56%, 35%)" opacity="0.75"></circle><circle r="6.5" cx="593" cy="595" fill="hsl(146, 56%, 35%)" opacity="0.53"></circle><circle r="8.5" cx="644" cy="77" fill="hsl(168, 56%, 35%)" opacity="0.42"></circle><circle r="6.5" cx="456" cy="354" fill="hsl(151, 56%, 35%)" opacity="0.25"></circle><circle r="5.5" cx="474" cy="475" fill="hsl(152, 56%, 35%)" opacity="0.47"></circle><circle r="6.5" cx="625" cy="711" fill="hsl(146, 56%, 35%)" opacity="0.77"></circle><circle r="9.5" cx="509" cy="295" fill="hsl(152, 56%, 35%)" opacity="0.58"></circle><circle r="14" cx="46" cy="297" fill="hsl(173, 56%, 35%)" opacity="0.89"></circle><circle r="11.5" cx="122" cy="117" fill="hsl(173, 56%, 35%)" opacity="0.22"></circle><circle r="13.5" cx="768" cy="338" fill="hsl(166, 56%, 35%)" opacity="0.61"></circle><circle r="13" cx="40" cy="778" fill="hsl(173, 56%, 35%)" opacity="0.24"></circle><circle r="5" cx="538" cy="355" fill="hsl(150, 56%, 35%)" opacity="0.78"></circle><circle r="6.5" cx="661" cy="543" fill="hsl(147, 56%, 35%)" opacity="0.24"></circle><circle r="5.5" cx="226" cy="753" fill="hsl(150, 56%, 35%)" opacity="0.39"></circle><circle r="6" cx="128" cy="570" fill="hsl(165, 56%, 35%)" opacity="0.42"></circle><circle r="7.5" cx="564" cy="293" fill="hsl(148, 56%, 35%)" opacity="0.25"></circle><circle r="7" cx="208" cy="512" fill="hsl(153, 56%, 35%)" opacity="0.87"></circle><circle r="8.5" cx="59" cy="410" fill="hsl(172, 56%, 35%)" opacity="0.88"></circle><circle r="3" cx="307" cy="391" fill="hsl(144, 56%, 35%)" opacity="0.74"></circle><circle r="6" cx="452" cy="523" fill="hsl(151, 56%, 35%)" opacity="0.98"></circle><circle r="5.5" cx="242" cy="102" fill="hsl(156, 56%, 35%)" opacity="0.38"></circle><circle r="5" cx="441" cy="685" fill="hsl(151, 56%, 35%)" opacity="0.34"></circle><circle r="7.5" cx="311" cy="563" fill="hsl(144, 56%, 35%)" opacity="0.67"></circle><circle r="6.5" cx="534" cy="761" fill="hsl(150, 56%, 35%)" opacity="0.25"></circle><circle r="11" cx="752" cy="68" fill="hsl(179, 56%, 35%)" opacity="0.12"></circle><circle r="8.5" cx="120" cy="631" fill="hsl(167, 56%, 35%)" opacity="0.91"></circle><circle r="6" cx="498" cy="609" fill="hsl(152, 56%, 35%)" opacity="0.60"></circle><circle r="5" cx="563" cy="451" fill="hsl(148, 56%, 35%)" opacity="0.65"></circle><circle r="5.5" cx="543" cy="505" fill="hsl(150, 56%, 35%)" opacity="0.68"></circle><circle r="3" cx="272" cy="791" fill="hsl(146, 56%, 35%)" opacity="0.68"></circle><circle r="8.5" cx="333" cy="610" fill="hsl(144, 56%, 35%)" opacity="0.85"></circle><circle r="5.5" cx="36" cy="434" fill="hsl(173, 56%, 35%)" opacity="0.97"></circle><circle r="4" cx="602" cy="324" fill="hsl(146, 56%, 35%)" opacity="0.59"></circle><circle r="6.5" cx="591" cy="203" fill="hsl(146, 56%, 35%)" opacity="0.71"></circle><circle r="9.5" cx="715" cy="390" fill="hsl(155, 56%, 35%)" opacity="0.84"></circle><circle r="9" cx="86" cy="569" fill="hsl(171, 56%, 35%)" opacity="0.85"></circle><circle r="5" cx="390" cy="330" fill="hsl(147, 56%, 35%)" opacity="0.77"></circle><circle r="6.5" cx="248" cy="672" fill="hsl(148, 56%, 35%)" opacity="0.16"></circle><circle r="7.5" cx="363" cy="148" fill="hsl(151, 56%, 35%)" opacity="0.69"></circle><circle r="6" cx="492" cy="378" fill="hsl(152, 56%, 35%)" opacity="0.34"></circle><circle r="6" cx="595" cy="521" fill="hsl(146, 56%, 35%)" opacity="0.23"></circle><circle r="7" cx="682" cy="173" fill="hsl(154, 56%, 35%)" opacity="0.60"></circle><circle r="6.5" cx="417" cy="610" fill="hsl(149, 56%, 35%)" opacity="0.71"></circle><circle r="4.5" cx="237" cy="530" fill="hsl(150, 56%, 35%)" opacity="0.13"></circle><circle r="4.5" cx="425" cy="376" fill="hsl(150, 56%, 35%)" opacity="0.13"></circle><circle r="7" cx="251" cy="151" fill="hsl(149, 56%, 35%)" opacity="0.28"></circle><circle r="7" cx="740" cy="210" fill="hsl(161, 56%, 35%)" opacity="0.94"></circle><circle r="8" cx="520" cy="254" fill="hsl(151, 56%, 35%)" opacity="0.72"></circle><circle r="6" cx="407" cy="305" fill="hsl(148, 56%, 35%)" opacity="0.87"></circle><circle r="5" cx="425" cy="446" fill="hsl(150, 56%, 35%)" opacity="0.35"></circle><circle r="7" cx="471" cy="579" fill="hsl(152, 56%, 35%)" opacity="0.14"></circle><circle r="6.5" cx="395" cy="367" fill="hsl(147, 56%, 35%)" opacity="0.34"></circle><circle r="12.5" cx="28" cy="237" fill="hsl(173, 56%, 35%)" opacity="0.65"></circle><circle r="9.5" cx="12" cy="382" fill="hsl(172, 56%, 35%)" opacity="0.25"></circle><circle r="6.5" cx="581" cy="403" fill="hsl(147, 56%, 35%)" opacity="0.89"></circle><circle r="6" cx="560" cy="624" fill="hsl(149, 56%, 35%)" opacity="0.32"></circle><circle r="5" cx="560" cy="788" fill="hsl(149, 56%, 35%)" opacity="0.52"></circle><circle r="11" cx="222" cy="316" fill="hsl(151, 56%, 35%)" opacity="0.32"></circle><circle r="7.5" cx="16" cy="705" fill="hsl(172, 56%, 35%)" opacity="0.93"></circle><circle r="4.5" cx="637" cy="788" fill="hsl(146, 56%, 35%)" opacity="0.74"></circle><circle r="6.5" cx="351" cy="781" fill="hsl(145, 56%, 35%)" opacity="0.60"></circle><circle r="10" cx="16" cy="97" fill="hsl(178, 56%, 35%)" opacity="0.52"></circle><circle r="8.5" cx="19" cy="276" fill="hsl(172, 56%, 35%)" opacity="0.95"></circle><circle r="10" cx="674" cy="433" fill="hsl(148, 56%, 35%)" opacity="0.12"></circle><circle r="11" cx="68" cy="454" fill="hsl(172, 56%, 35%)" opacity="0.13"></circle><circle r="11" cx="161" cy="307" fill="hsl(161, 56%, 35%)" opacity="0.35"></circle><circle r="13.5" cx="68" cy="199" fill="hsl(172, 56%, 35%)" opacity="0.68"></circle><circle r="6" cx="349" cy="344" fill="hsl(144, 56%, 35%)" opacity="0.11"></circle><circle r="15.5" cx="409" cy="63" fill="hsl(169, 56%, 35%)" opacity="0.48"></circle><circle r="9.5" cx="49" cy="497" fill="hsl(173, 56%, 35%)" opacity="0.52"></circle><circle r="8" cx="279" cy="603" fill="hsl(145, 56%, 35%)" opacity="0.33"></circle><circle r="4.5" cx="545" cy="605" fill="hsl(150, 56%, 35%)" opacity="0.46"></circle><circle r="6" cx="635" cy="746" fill="hsl(146, 56%, 35%)" opacity="0.33"></circle><circle r="5" cx="427" cy="549" fill="hsl(150, 56%, 35%)" opacity="0.69"></circle><circle r="5.5" cx="420" cy="476" fill="hsl(149, 56%, 35%)" opacity="0.98"></circle><circle r="10" cx="93" cy="81" fill="hsl(174, 56%, 35%)" opacity="0.51"></circle><circle r="3.5" cx="421" cy="528" fill="hsl(149, 56%, 35%)" opacity="0.49"></circle><circle r="4" cx="235" cy="790" fill="hsl(150, 56%, 35%)" opacity="0.93"></circle><circle r="4" cx="268" cy="485" fill="hsl(146, 56%, 35%)" opacity="0.40"></circle><circle r="7.5" cx="744" cy="239" fill="hsl(161, 56%, 35%)" opacity="0.43"></circle><circle r="15" cx="86" cy="253" fill="hsl(171, 56%, 35%)" opacity="0.98"></circle><circle r="7.5" cx="189" cy="142" fill="hsl(159, 56%, 35%)" opacity="0.28"></circle><circle r="5" cx="436" cy="655" fill="hsl(150, 56%, 35%)" opacity="0.26"></circle><circle r="8" cx="434" cy="721" fill="hsl(150, 56%, 35%)" opacity="0.14"></circle><circle r="11" cx="784" cy="76" fill="hsl(183, 56%, 35%)" opacity="0.93"></circle><circle r="6" cx="222" cy="89" fill="hsl(160, 56%, 35%)" opacity="0.52"></circle><circle r="5" cx="111" cy="591" fill="hsl(169, 56%, 35%)" opacity="0.36"></circle><circle r="6" cx="673" cy="734" fill="hsl(148, 56%, 35%)" opacity="0.20"></circle><circle r="6.5" cx="444" cy="280" fill="hsl(151, 56%, 35%)" opacity="0.87"></circle><circle r="5.5" cx="524" cy="727" fill="hsl(151, 56%, 35%)" opacity="0.79"></circle><circle r="6" cx="452" cy="755" fill="hsl(151, 56%, 35%)" opacity="0.72"></circle><circle r="5" cx="676" cy="589" fill="hsl(149, 56%, 35%)" opacity="0.87"></circle><circle r="8.5" cx="629" cy="586" fill="hsl(146, 56%, 35%)" opacity="0.16"></circle><circle r="5.5" cx="113" cy="11" fill="hsl(162, 56%, 35%)" opacity="0.97"></circle><circle r="6" cx="467" cy="786" fill="hsl(152, 56%, 35%)" opacity="0.79"></circle><circle r="11" cx="160" cy="539" fill="hsl(161, 56%, 35%)" opacity="0.99"></circle><circle r="5.5" cx="533" cy="399" fill="hsl(150, 56%, 35%)" opacity="0.61"></circle><circle r="5" cx="477" cy="511" fill="hsl(152, 56%, 35%)" opacity="0.37"></circle><circle r="6.5" cx="594" cy="438" fill="hsl(146, 56%, 35%)" opacity="0.57"></circle><circle r="8.5" cx="382" cy="271" fill="hsl(146, 56%, 35%)" opacity="0.86"></circle><circle r="5" cx="346" cy="448" fill="hsl(144, 56%, 35%)" opacity="0.87"></circle><circle r="5.5" cx="267" cy="110" fill="hsl(154, 56%, 35%)" opacity="0.78"></circle><circle r="5" cx="633" cy="327" fill="hsl(146, 56%, 35%)" opacity="0.75"></circle><circle r="10" cx="783" cy="414" fill="hsl(169, 56%, 35%)" opacity="0.76"></circle><circle r="7.5" cx="365" cy="14" fill="hsl(167, 56%, 35%)" opacity="0.29"></circle><circle r="14.5" cx="777" cy="121" fill="hsl(181, 56%, 35%)" opacity="0.57"></circle><circle r="6" cx="396" cy="699" fill="hsl(147, 56%, 35%)" opacity="0.24"></circle><circle r="8.5" cx="135" cy="183" fill="hsl(167, 56%, 35%)" opacity="0.98"></circle><circle r="5.5" cx="287" cy="306" fill="hsl(145, 56%, 35%)" opacity="0.22"></circle><circle r="8" cx="649" cy="149" fill="hsl(156, 56%, 35%)" opacity="0.23"></circle><circle r="17.5" cx="523" cy="25" fill="hsl(187, 56%, 35%)" opacity="0.68"></circle><circle r="9.5" cx="752" cy="609" fill="hsl(164, 56%, 35%)" opacity="0.73"></circle><circle r="10.5" cx="147" cy="28" fill="hsl(165, 56%, 35%)" opacity="0.85"></circle><circle r="7" cx="258" cy="48" fill="hsl(159, 56%, 35%)" opacity="0.59"></circle><circle r="7.5" cx="738" cy="178" fill="hsl(164, 56%, 35%)" opacity="0.93"></circle><circle r="10" cx="123" cy="677" fill="hsl(167, 56%, 35%)" opacity="0.55"></circle><circle r="7" cx="400" cy="782" fill="hsl(147, 56%, 35%)" opacity="0.15"></circle><circle r="9.5" cx="82" cy="531" fill="hsl(171, 56%, 35%)" opacity="0.39"></circle><circle r="5.5" cx="553" cy="196" fill="hsl(149, 56%, 35%)" opacity="0.40"></circle><circle r="5.5" cx="708" cy="622" fill="hsl(153, 56%, 35%)" opacity="0.33"></circle><circle r="6" cx="585" cy="348" fill="hsl(147, 56%, 35%)" opacity="0.64"></circle><circle r="8" cx="29" cy="410" fill="hsl(173, 56%, 35%)" opacity="0.64"></circle><circle r="7" cx="629" cy="267" fill="hsl(146, 56%, 35%)" opacity="0.80"></circle><circle r="13" cx="774" cy="286" fill="hsl(166, 56%, 35%)" opacity="0.33"></circle><circle r="6.5" cx="157" cy="391" fill="hsl(161, 56%, 35%)" opacity="0.74"></circle><circle r="9" cx="165" cy="699" fill="hsl(159, 56%, 35%)" opacity="0.26"></circle><circle r="11" cx="52" cy="567" fill="hsl(172, 56%, 35%)" opacity="0.43"></circle><circle r="3.5" cx="439" cy="252" fill="hsl(151, 56%, 35%)" opacity="0.88"></circle><circle r="7.5" cx="486" cy="547" fill="hsl(152, 56%, 35%)" opacity="0.41"></circle><circle r="6.5" cx="579" cy="554" fill="hsl(147, 56%, 35%)" opacity="0.76"></circle><circle r="6.5" cx="698" cy="277" fill="hsl(151, 56%, 35%)" opacity="0.67"></circle><circle r="6.5" cx="290" cy="360" fill="hsl(144, 56%, 35%)" opacity="1.00"></circle><circle r="8.5" cx="115" cy="546" fill="hsl(167, 56%, 35%)" opacity="0.44"></circle><circle r="8.5" cx="736" cy="96" fill="hsl(175, 56%, 35%)" opacity="0.62"></circle><circle r="7" cx="100" cy="609" fill="hsl(170, 56%, 35%)" opacity="0.84"></circle><circle r="6.5" cx="361" cy="691" fill="hsl(145, 56%, 35%)" opacity="0.36"></circle><circle r="5" cx="484" cy="645" fill="hsl(152, 56%, 35%)" opacity="0.40"></circle><circle r="5.5" cx="284" cy="246" fill="hsl(145, 56%, 35%)" opacity="0.35"></circle><circle r="7.5" cx="475" cy="267" fill="hsl(152, 56%, 35%)" opacity="0.38"></circle><circle r="5.5" cx="419" cy="579" fill="hsl(149, 56%, 35%)" opacity="0.79"></circle><circle r="7" cx="355" cy="520" fill="hsl(145, 56%, 35%)" opacity="0.21"></circle><circle r="4.5" cx="391" cy="665" fill="hsl(147, 56%, 35%)" opacity="0.10"></circle><circle r="9" cx="186" cy="611" fill="hsl(157, 56%, 35%)" opacity="0.31"></circle><circle r="6.5" cx="581" cy="708" fill="hsl(147, 56%, 35%)" opacity="0.71"></circle><circle r="7" cx="261" cy="563" fill="hsl(147, 56%, 35%)" opacity="0.51"></circle><circle r="8.5" cx="88" cy="369" fill="hsl(170, 56%, 35%)" opacity="0.38"></circle><circle r="7.5" cx="694" cy="562" fill="hsl(151, 56%, 35%)" opacity="0.20"></circle><circle r="5.5" cx="469" cy="442" fill="hsl(152, 56%, 35%)" opacity="0.39"></circle><circle r="5.5" cx="283" cy="131" fill="hsl(150, 56%, 35%)" opacity="0.62"></circle><circle r="10.5" cx="675" cy="69" fill="hsl(171, 56%, 35%)" opacity="0.36"></circle><circle r="9" cx="219" cy="436" fill="hsl(151, 56%, 35%)" opacity="0.48"></circle><circle r="12.5" cx="26" cy="536" fill="hsl(173, 56%, 35%)" opacity="0.17"></circle><circle r="6.5" cx="305" cy="660" fill="hsl(144, 56%, 35%)" opacity="0.14"></circle><circle r="7" cx="673" cy="320" fill="hsl(148, 56%, 35%)" opacity="0.71"></circle><circle r="4.5" cx="453" cy="236" fill="hsl(151, 56%, 35%)" opacity="0.68"></circle><circle r="6.5" cx="274" cy="197" fill="hsl(146, 56%, 35%)" opacity="0.80"></circle><circle r="9" cx="25" cy="642" fill="hsl(172, 56%, 35%)" opacity="0.50"></circle><circle r="7.5" cx="140" cy="786" fill="hsl(163, 56%, 35%)" opacity="0.58"></circle><circle r="12" cx="438" cy="18" fill="hsl(180, 56%, 35%)" opacity="0.93"></circle><circle r="9" cx="784" cy="775" fill="hsl(169, 56%, 35%)" opacity="0.11"></circle><circle r="5.5" cx="456" cy="640" fill="hsl(151, 56%, 35%)" opacity="0.84"></circle><circle r="10" cx="25" cy="738" fill="hsl(172, 56%, 35%)" opacity="0.70"></circle><circle r="8" cx="38" cy="29" fill="hsl(167, 56%, 35%)" opacity="0.39"></circle><circle r="8" cx="549" cy="113" fill="hsl(165, 56%, 35%)" opacity="0.76"></circle><circle r="7.5" cx="550" cy="663" fill="hsl(149, 56%, 35%)" opacity="0.85"></circle><circle r="6" cx="704" cy="735" fill="hsl(153, 56%, 35%)" opacity="0.60"></circle><circle r="6.5" cx="107" cy="56" fill="hsl(170, 56%, 35%)" opacity="0.72"></circle><circle r="7" cx="306" cy="215" fill="hsl(144, 56%, 35%)" opacity="0.79"></circle><circle r="6" cx="655" cy="182" fill="hsl(149, 56%, 35%)" opacity="0.60"></circle><circle r="6" cx="790" cy="519" fill="hsl(172, 56%, 35%)" opacity="0.55"></circle><circle r="5.5" cx="448" cy="489" fill="hsl(151, 56%, 35%)" opacity="0.63"></circle><circle r="7" cx="621" cy="187" fill="hsl(148, 56%, 35%)" opacity="0.11"></circle><circle r="8.5" cx="149" cy="355" fill="hsl(163, 56%, 35%)" opacity="0.51"></circle><circle r="9.5" cx="162" cy="208" fill="hsl(161, 56%, 35%)" opacity="0.79"></circle><circle r="8.5" cx="345" cy="40" fill="hsl(163, 56%, 35%)" opacity="0.73"></circle><circle r="6.5" cx="677" cy="243" fill="hsl(149, 56%, 35%)" opacity="0.31"></circle><circle r="7" cx="602" cy="764" fill="hsl(146, 56%, 35%)" opacity="0.29"></circle><circle r="8.5" cx="337" cy="77" fill="hsl(158, 56%, 35%)" opacity="0.81"></circle><circle r="10" cx="88" cy="642" fill="hsl(170, 56%, 35%)" opacity="0.17"></circle><circle r="7" cx="595" cy="485" fill="hsl(146, 56%, 35%)" opacity="0.90"></circle><circle r="9.5" cx="190" cy="348" fill="hsl(155, 56%, 35%)" opacity="0.14"></circle><circle r="8" cx="652" cy="493" fill="hsl(147, 56%, 35%)" opacity="0.46"></circle><circle r="7.5" cx="120" cy="354" fill="hsl(167, 56%, 35%)" opacity="0.63"></circle><circle r="6" cx="662" cy="285" fill="hsl(147, 56%, 35%)" opacity="0.27"></circle><circle r="7.5" cx="232" cy="266" fill="hsl(150, 56%, 35%)" opacity="0.63"></circle></svg>